<?xml version="1.0" standalone="no"?>
<!DOCTYPE svg PUBLIC "-//W3C//DTD SVG 20010904//EN"
 "http://www.w3.org/TR/2001/REC-SVG-20010904/DTD/svg10.dtd">
<svg version="1.0" xmlns="http://www.w3.org/2000/svg"
 width="206.000000pt" height="206.000000pt" viewBox="0 0 206.000000 206.000000"
 preserveAspectRatio="xMidYMid meet">
<metadata>
Created by potrace 1.14, written by Peter Selinger 2001-2017
</metadata>
<g transform="translate(0.000000,206.000000) scale(0.100000,-0.100000)"
fill="#000000" stroke="none">
<path d="M12 1543 c2 -5 9 -19 16 -33 6 -14 91 -213 187 -444 193 -459 202
-479 240 -525 24 -27 33 -31 77 -31 64 0 110 27 143 83 13 23 58 125 100 227
42 102 126 300 186 441 60 141 109 264 109 273 0 15 -13 16 -111 14 l-111 -3
-145 -360 c-80 -198 -148 -364 -153 -368 -4 -5 -74 158 -156 362 l-149 371
-118 0 c-65 0 -117 -3 -115 -7z"/>
<path d="M1087 1544 c-3 -4 68 -116 159 -251 97 -143 164 -250 160 -258 -6
-16 -116 -176 -253 -367 -45 -64 -83 -126 -83 -137 0 -20 5 -21 114 -21 l114
0 34 39 c18 22 74 98 123 170 50 71 92 130 95 130 3 0 59 -76 125 -169 l120
-170 125 3 c118 2 125 3 124 22 0 11 -102 167 -227 347 -125 180 -227 329
-227 333 0 3 48 5 106 5 58 0 114 5 125 10 16 9 219 300 219 315 0 3 -51 5
-114 5 -139 0 -139 0 -238 -149 -39 -58 -82 -118 -96 -133 l-25 -28 -56 78
c-31 42 -72 104 -92 136 -51 84 -77 96 -215 96 -61 0 -113 -3 -117 -6z"/>
</g>
</svg>
